<?xml version="1.0" encoding="utf-8"?>
<!-- Svg Vector Icons : http://www.onlinewebfonts.com/icon -->
<!DOCTYPE svg PUBLIC "-//W3C//DTD SVG 1.1//EN" "http://www.w3.org/Graphics/SVG/1.1/DTD/svg11.dtd">
<svg version="1.1" xmlns="http://www.w3.org/2000/svg" xmlns:xlink="http://www.w3.org/1999/xlink" x="0px" y="0px" viewBox="0 0 1000 1000" enable-background="new 0 0 1000 1000" xml:space="preserve">
<metadata> Svg Vector Icons : http://www.onlinewebfonts.com/icon </metadata>
<g><path d="M10,990h490V10H10V990L10,990z M312.4,131.2h122.5v122.5H312.4V131.2z M312.4,377.5h122.5V500H312.4V377.5z M312.4,621.2h122.5v122.5H312.4V621.2z M71.2,131.2h122.5v122.5H71.2V131.2z M71.2,377.5h122.5V500H71.2V377.5z M71.2,621.2h122.5v122.5H71.2V621.2z M561.3,320.3H990v56.1H561.3V320.3z M561.3,990h122.5V775.7h183.8V990H990V443.9H561.3V990z"/></g>
</svg>