<?xml version="1.0" encoding="utf-8"?>
<!-- Svg Vector Icons : http://www.onlinewebfonts.com/icon -->
<!DOCTYPE svg PUBLIC "-//W3C//DTD SVG 1.1//EN" "http://www.w3.org/Graphics/SVG/1.1/DTD/svg11.dtd">
<svg version="1.1" xmlns="http://www.w3.org/2000/svg" xmlns:xlink="http://www.w3.org/1999/xlink" x="0px" y="0px" viewBox="0 0 1000 1000" enable-background="new 0 0 1000 1000" xml:space="preserve">
<metadata> Svg Vector Icons : http://www.onlinewebfonts.com/icon </metadata>
<g><path d="M836.9,193.8h-490c-84.2,0-153.1,68.9-153.1,153.1v490c0,84.2,68.9,153.1,153.1,153.1h490c84.2,0,153.1-68.9,153.1-153.1v-490C990,262.7,921.1,193.8,836.9,193.8z M408.1,867.5c-50.7,0-91.9-41.1-91.9-91.9s41.1-91.9,91.9-91.9s91.9,41.1,91.9,91.9S458.9,867.5,408.1,867.5z M408.1,500c-50.7,0-91.9-41.1-91.9-91.9c0-50.7,41.1-91.9,91.9-91.9s91.9,41.1,91.9,91.9C500,458.9,458.9,500,408.1,500z M591.9,683.8c-50.7,0-91.9-41.1-91.9-91.9s41.1-91.9,91.9-91.9s91.9,41.1,91.9,91.9S642.6,683.8,591.9,683.8z M775.6,867.5c-50.7,0-91.9-41.1-91.9-91.9s41.1-91.9,91.9-91.9c50.7,0,91.9,41.1,91.9,91.9S826.4,867.5,775.6,867.5z M775.6,500c-50.7,0-91.9-41.1-91.9-91.9c0-50.7,41.1-91.9,91.9-91.9c50.7,0,91.9,41.1,91.9,91.9C867.5,458.9,826.4,500,775.6,500z M803.2,132.5C788.9,62.8,726.9,10,653.1,10h-490C78.9,10,10,78.9,10,163.1v490c0,73.7,52.8,135.7,122.5,150V193.8c0-33.7,27.6-61.3,61.3-61.3H803.2z"/></g>
</svg>