<?xml version="1.0" encoding="utf-8"?>
<!-- Svg Vector Icons : http://www.onlinewebfonts.com/icon -->
<!DOCTYPE svg PUBLIC "-//W3C//DTD SVG 1.1//EN" "http://www.w3.org/Graphics/SVG/1.1/DTD/svg11.dtd">
<svg version="1.1" xmlns="http://www.w3.org/2000/svg" xmlns:xlink="http://www.w3.org/1999/xlink" x="0px" y="0px" viewBox="0 0 1000 1000" enable-background="new 0 0 1000 1000" xml:space="preserve">
<metadata> Svg Vector Icons : http://www.onlinewebfonts.com/icon </metadata>
<g><path d="M858.6,583.7L805,518.5c-4.5-5.5-10.9-8.7-17.6-8.7c-6.6,0-13.1,3.2-17.6,8.7l-53.5,65.2c-6.8,8.3-5.4,14.8-3.9,17.8c1.4,3.1,5.5,8.4,16.1,8.4h15.3c-6.9,102-88.3,179.6-198,196.8V385.5h98.3c10.8,10.4,25.1,16.1,40.5,16.1c32.8,0,59.4-26.6,59.4-59.3c0-32.7-26.6-59.3-59.4-59.3c-15.6,0-29.8,5.6-40.5,15.8h-98.3v-80.8c38.3-17.7,63.2-56.1,63.2-99C609.1,58.9,560.1,10,500,10C440,10,390.8,58.9,390.8,118.9c0,42.9,25,81.3,63.3,99v80.8h-98.6c-10.7-10.2-24.9-15.8-40.5-15.8c-32.8,0-59.4,26.7-59.4,59.4c0,32.7,26.6,59.2,59.4,59.2c15.4,0,29.7-5.7,40.5-16.1h98.6v421.2C344.4,789.5,262.8,712,255.9,610h15.5c10.7,0,14.7-5.3,16.1-8.4c1.4-3.1,2.9-9.5-3.9-17.8l-53.5-65.3c-4.5-5.5-10.9-8.7-17.6-8.7c-6.6,0-13.1,3.2-17.6,8.7l-53.5,65.2c-6.8,8.3-5.4,14.8-3.9,17.8c1.4,3.1,5.5,8.4,16.1,8.4h18.8c4,79.1,42.7,157.7,107.1,219.2c51.7,49.3,113.3,81.5,174.5,92.4V956c0,19,15.9,34,35,34h21.6c19,0,35.2-14.9,35.2-34v-34.5c61.2-10.9,122.6-43.1,174.3-92.4C784.7,767.7,823.3,689,827.3,610h19.1c10.7,0,14.7-5.3,16.1-8.4C863.9,598.5,865.3,592,858.6,583.7z M443.2,118.9c0-31.2,25.4-56.7,56.7-56.7s56.7,25.4,56.7,56.7c0,31.2-25.4,56.7-56.7,56.7S443.2,150.2,443.2,118.9z"/><g></g><g></g><g></g><g></g><g></g><g></g><g></g><g></g><g></g><g></g><g></g><g></g><g></g><g></g><g></g></g>
</svg>