<?xml version="1.0" encoding="utf-8"?>
<!-- Svg Vector Icons : http://www.onlinewebfonts.com/icon -->
<!DOCTYPE svg PUBLIC "-//W3C//DTD SVG 1.1//EN" "http://www.w3.org/Graphics/SVG/1.1/DTD/svg11.dtd">
<svg version="1.1" xmlns="http://www.w3.org/2000/svg" xmlns:xlink="http://www.w3.org/1999/xlink" x="0px" y="0px" viewBox="0 0 1000 1000" enable-background="new 0 0 1000 1000" xml:space="preserve">
<metadata> Svg Vector Icons : http://www.onlinewebfonts.com/icon </metadata>
<g><g><path d="M848.7,128.8C562.2,128.8,513.7,20,513.3,19c-2.1-5.3-7.2-8.9-13.2-9c0,0-0.1,0-0.2,0c-5.7,0-10.9,3.6-13.2,8.8c-0.4,1.1-50,110-335.5,110c-7.9,0-14.3,6.5-14.3,14.3v487.4c0,199.5,342.8,352,357.2,358.4c1.9,0.8,3.8,1.1,5.8,1.1c1.9,0,3.9-0.3,5.7-1.1C520.3,982.5,863,830,863,630.5V143.1C863,135.3,856.7,128.8,848.7,128.8z M784.2,602.1c0,156.1-268.3,275.6-279.8,280.5c-1.4,0.7-3,1-4.5,1c-1.6,0-3-0.2-4.6-1c-11.3-4.9-279.6-124.4-279.6-280.5V220.6c0-6.2,5-11.2,11.2-11.2c223.6,0,262.2-85.2,262.7-86.1c1.8-4.1,5.8-6.9,10.3-6.9c0.1,0,0.1,0,0.1,0c4.6,0.1,8.6,2.8,10.3,7.1c0.3,0.8,38.3,85.9,262.6,85.9c6.2,0,11.2,5.1,11.2,11.2C784.2,220.6,784.2,602.1,784.2,602.1z M730.7,598c0,126.8-217.8,223.7-227.1,227.7c-1.1,0.6-2.4,0.8-3.6,0.8c-1.3,0-3.6-622.8,0-622.8h0.1c3.7,0.1,7.1,2.3,8.4,5.8c0.2,0.6,31.1,69.7,213.2,69.7c5.1,0,9.1,4.1,9.1,9.1V598z"/></g><g></g><g></g><g></g><g></g><g></g><g></g><g></g><g></g><g></g><g></g><g></g><g></g><g></g><g></g><g></g></g>
</svg>