<?xml version="1.0" standalone="no"?>
<!DOCTYPE svg PUBLIC "-//W3C//DTD SVG 20010904//EN"
 "http://www.w3.org/TR/2001/REC-SVG-20010904/DTD/svg10.dtd">
<svg version="1.0" xmlns="http://www.w3.org/2000/svg"
 width="1032.000000pt" height="2503.000000pt" viewBox="0 0 1032.000000 2503.000000"
 preserveAspectRatio="xMidYMid meet">
<metadata>
Created by potrace 1.15, written by Peter Selinger 2001-2017
</metadata>
<g transform="translate(0.000000,2503.000000) scale(0.100000,-0.100000)"
fill="#000000" stroke="none">
<path d="M4120 24880 l0 -150 75 0 75 0 0 150 0 150 -75 0 -75 0 0 -150z"/>
<path d="M350 24568 l-1 -103 -17 32 c-28 53 -58 68 -134 68 -81 0 -116 -22
-137 -84 -17 -54 -8 -103 29 -144 27 -31 31 -32 108 -32 71 0 83 3 106 24 14
14 26 30 26 38 0 21 -40 15 -72 -12 -40 -34 -82 -33 -119 4 -54 54 -44 61 91
61 l120 0 0 -55 c0 -52 1 -55 25 -55 17 0 25 6 25 17 0 14 2 14 20 -2 14 -12
40 -20 78 -22 69 -5 110 17 135 70 22 46 21 72 -3 123 -35 70 -117 94 -193 55
l-37 -19 0 69 c0 67 -1 69 -25 69 l-25 0 0 -102z m203 -58 c55 -44 43 -140
-21 -167 -49 -20 -95 -3 -117 43 -33 70 8 144 80 144 18 0 44 -9 58 -20z"/>
<path d="M1168 22602 c6 -2 12 -10 12 -18 0 -14 -44 -20 -117 -15 -32 2 -44
-11 -23 -24 25 -15 5 -23 -54 -22 -66 2 -92 -7 -66 -23 8 -5 17 -7 21 -4 4 2
9 -3 13 -11 3 -8 0 -17 -6 -21 -7 -4 -5 -10 6 -16 23 -13 40 0 25 18 -9 11 -8
15 6 20 9 4 21 2 27 -4 6 -6 16 -8 22 -6 7 3 26 -2 42 -11 23 -12 25 -15 9
-15 -11 0 -29 -7 -39 -15 -19 -15 -19 -15 1 -15 12 0 25 -5 28 -11 4 -5 12 -8
18 -6 7 2 18 -2 25 -10 7 -7 28 -13 46 -13 19 0 48 -3 65 -6 l31 -6 0 106 c0
64 -4 106 -10 106 -5 0 -10 7 -10 15 0 11 -11 14 -42 13 -24 -1 -37 -3 -30 -6z"/>
<path d="M7681 22407 c-1 -80 9 -97 52 -87 23 5 40 3 52 -6 18 -13 18 -14 -2
-14 -13 0 -24 -8 -28 -20 -3 -11 -11 -20 -16 -20 -5 0 -9 -9 -9 -20 0 -10 -7
-23 -16 -28 -9 -5 -14 -15 -10 -21 4 -6 12 -8 19 -4 18 11 57 9 57 -3 0 -6 11
-11 25 -11 21 0 25 5 30 36 3 20 10 51 15 70 9 35 -6 91 -29 105 -16 11 -13
46 4 46 8 0 15 7 15 15 0 12 -13 15 -59 15 -57 0 -58 -1 -68 -32 l-10 -33 -11
35 c-10 34 -10 34 -11 -23z"/>
<path d="M7900 22436 c0 -13 6 -29 13 -35 8 -6 12 -23 9 -41 -4 -30 -22 -43
-22 -15 0 8 -5 15 -11 15 -6 0 -9 13 -7 30 1 16 -2 29 -7 29 -6 0 -8 -17 -6
-37 2 -20 4 -46 5 -57 1 -14 9 -21 27 -23 l27 -3 1 -120 2 -119 -25 0 c-18 0
-24 -4 -20 -15 4 -9 0 -15 -9 -15 -19 0 -26 -47 -19 -132 l5 -68 63 0 c57 0
64 2 64 20 0 11 7 20 15 20 8 0 15 -4 15 -10 0 -5 -4 -10 -10 -10 -5 0 -10 -4
-10 -8 0 -5 51 -9 114 -11 103 -2 115 0 119 16 4 17 5 17 6 1 1 -17 18 -18
201 -18 l200 0 0 315 c0 304 -1 315 -19 315 -11 0 -22 -6 -24 -12 -4 -10 -6
-10 -6 0 -1 16 -51 16 -51 0 0 -9 -3 -9 -12 0 -8 8 -47 12 -110 12 -81 0 -96
-2 -92 -14 3 -8 1 -23 -5 -33 -9 -15 -10 -13 -11 15 l0 33 -57 -3 c-56 -3 -58
-4 -56 -30 1 -16 -2 -28 -8 -28 -5 0 -9 14 -9 30 0 30 0 30 -59 30 -56 0 -60
-2 -69 -27 l-10 -28 -1 28 c-1 17 -6 27 -16 27 -8 0 -15 -5 -15 -10 0 -7 -6
-7 -19 0 -11 5 -36 10 -55 10 -31 0 -36 -3 -36 -24z m160 -156 c0 -5 -7 -10
-15 -10 -8 0 -15 -4 -15 -10 0 -14 11 -12 30 5 16 15 20 13 44 -15 14 -17 26
-43 26 -57 0 -23 3 -24 48 -21 l47 3 3 -47 c3 -41 0 -48 -15 -48 -100 -2 -164
-7 -172 -15 -6 -6 -11 -36 -13 -67 -3 -62 -18 -81 -18 -23 0 19 -4 35 -8 35
-4 0 -13 13 -19 30 -10 27 -10 29 6 20 15 -8 17 -5 13 15 -2 14 -11 25 -19 25
-8 0 -12 4 -9 9 4 5 1 11 -5 13 -7 2 -8 17 -3 43 l7 40 11 -34 c10 -28 14 -31
24 -19 16 20 22 80 9 96 -7 9 -5 17 9 27 23 17 34 19 34 5z m400 -150 l0 -40
-43 0 c-47 0 -69 -14 -60 -38 4 -10 1 -13 -8 -10 -8 2 -16 20 -19 39 l-6 34
-6 -43 c-7 -46 -14 -60 -25 -48 -4 3 -1 12 5 18 7 7 12 41 12 79 0 51 4 68 16
73 12 4 14 1 9 -14 -9 -29 2 -25 37 16 l32 36 28 -31 c21 -23 28 -42 28 -71z"/>
<path d="M1205 22279 c-4 -12 -12 -18 -21 -15 -7 3 -16 1 -19 -5 -4 -5 -21
-15 -38 -23 -42 -17 -97 -80 -97 -111 0 -16 -6 -25 -15 -25 -9 0 -15 9 -15 25
0 13 -8 28 -17 32 -28 13 -266 0 -270 -14 -3 -7 10 -15 31 -19 l36 -6 0 -59
c0 -33 1 -59 3 -60 1 0 30 -2 64 -5 60 -6 62 -5 61 18 -4 64 2 112 13 101 10
-10 9 -87 -2 -122 -6 -20 87 -67 120 -62 8 1 17 -3 21 -9 5 -9 13 -9 27 -2 12
7 25 7 34 1 11 -7 11 -9 -5 -9 -14 0 -17 -6 -14 -25 3 -13 1 -22 -3 -19 -5 3
-9 12 -9 20 0 9 -10 14 -29 14 -36 0 -49 -16 -21 -25 26 -8 26 -22 0 -30 -11
-3 -20 -11 -20 -16 0 -5 -15 -9 -32 -9 -60 1 -107 -11 -101 -26 3 -8 -5 -17
-20 -23 -34 -13 -46 -33 -15 -27 75 15 87 15 81 1 -3 -8 -15 -15 -28 -15 -12
0 -28 -6 -34 -14 -9 -11 -20 -12 -44 -5 -49 14 -55 10 -22 -16 30 -25 32 -25
243 -25 l212 0 0 309 c0 272 -2 310 -16 315 -25 10 -32 7 -39 -15z"/>
<path d="M494 22246 c-3 -7 -3 -64 -2 -127 l3 -114 30 -3 c45 -3 54 8 60 74 3
32 10 60 15 62 6 2 3 13 -5 25 -8 12 -15 31 -15 43 0 12 -6 26 -12 31 -21 16
-69 22 -74 9z"/>
<path d="M5632 22228 c-8 -11 -17 -105 -13 -145 1 -9 21 -13 65 -13 71 0 76 5
76 67 0 34 -1 35 -35 31 -31 -4 -36 -1 -42 21 -6 28 -21 51 -33 51 -4 0 -12
-6 -18 -12z"/>
<path d="M2905 22211 c-1 -3 -6 -26 -10 -51 -5 -34 -1 -60 15 -105 31 -84 41
-93 78 -67 50 36 54 45 42 99 -6 26 -16 56 -21 65 -12 23 -11 31 2 22 7 -4 9
2 7 17 -3 21 -8 24 -56 25 -29 0 -55 -2 -57 -5z"/>
<path d="M3135 22110 c-2 -3 0 -25 5 -50 12 -65 35 -80 118 -74 80 6 111 29
119 90 l5 39 -122 0 c-67 0 -123 -2 -125 -5z"/>
<path d="M8500 20310 l0 -80 80 0 80 0 0 80 0 80 -80 0 -80 0 0 -80z"/>
<path d="M8964 20377 c-3 -8 -4 -43 -2 -78 l3 -64 75 0 75 0 0 75 0 75 -73 3
c-55 2 -74 -1 -78 -11z"/>
<path d="M5322 19608 c-8 -8 -12 -51 -12 -128 0 -77 4 -120 12 -128 17 -17
1199 -17 1216 0 8 8 12 51 12 128 0 77 -4 120 -12 128 -17 17 -1199 17 -1216
0z"/>
<path d="M1112 19189 c-1 -103 2 -147 14 -185 22 -64 28 -71 88 -98 152 -68
574 -52 657 25 27 25 29 32 29 104 0 70 -1 76 -19 70 -33 -10 -570 -19 -686
-10 -22 1 -48 3 -57 4 -15 1 -18 16 -21 114 l-3 112 -2 -136z"/>
<path d="M2269 19173 c-3 -21 -7 -77 -10 -157 l-4 -90 32 -22 c28 -19 43 -21
110 -18 90 4 212 34 223 55 16 30 41 212 30 223 -6 6 -10 7 -10 0 0 -7 -60
-11 -162 -12 -90 -1 -172 -3 -183 -5 -14 -1 -19 3 -17 16 2 9 0 17 -3 17 -3 0
-6 -3 -6 -7z"/>
<path d="M733 19058 c2 -13 8 -32 12 -42 7 -15 5 -17 -6 -10 -8 5 -56 9 -106
9 -102 0 -105 -3 -77 -56 28 -56 113 -75 172 -39 29 18 32 24 32 69 0 30 -5
51 -12 54 -10 4 -10 8 0 15 11 7 10 10 -3 16 -14 5 -16 2 -12 -16z"/>
<path d="M5312 18993 l3 -38 625 0 625 0 3 38 3 37 -631 0 -631 0 3 -37z"/>
<path d="M9692 17973 l3 -116 28 -2 c16 0 31 3 33 7 3 5 9 6 14 3 5 -3 9 43 9
102 0 117 -3 123 -57 123 l-33 0 3 -117z"/>
<path d="M9392 17961 l2 -106 3 98 c3 79 7 97 19 97 13 0 15 -15 12 -95 l-3
-95 48 0 47 0 0 100 c0 60 -4 100 -10 100 -6 0 -10 -39 -10 -97 0 -123 -11
-116 -13 9 l-2 93 -47 1 -48 1 2 -106z"/>
<path d="M9524 17629 c3 -49 2 -64 -3 -44 -5 17 -9 47 -10 68 0 20 -6 37 -12
37 -6 0 -8 -8 -5 -17 2 -10 8 -49 11 -88 10 -121 6 -115 80 -115 l64 0 -5 93
c-7 109 -10 121 -29 113 -8 -3 -27 -1 -41 4 l-26 10 6 -87 c4 -49 10 -96 13
-107 3 -11 1 -16 -5 -12 -6 3 -14 51 -18 106 -3 55 -11 103 -16 106 -6 4 -7
-23 -4 -67z"/>
<path d="M7483 17575 c-34 -24 -47 -76 -29 -118 8 -20 23 -40 34 -46 27 -15
85 -14 100 1 9 9 12 9 12 0 0 -7 7 -12 15 -12 11 0 15 12 15 50 l0 50 -50 0
c-38 0 -50 -4 -50 -15 0 -11 11 -15 36 -15 42 0 42 -20 1 -34 -58 -21 -106 38
-76 93 18 32 78 41 99 17 14 -18 40 -21 40 -6 0 5 -10 18 -22 30 -26 24 -93
27 -125 5z"/>
<path d="M7970 17495 c0 -76 3 -95 14 -95 10 0 16 13 18 38 3 36 4 37 45 40
42 3 73 28 73 59 0 31 -39 53 -95 53 l-55 0 0 -95z"/>
<path d="M8430 17561 c0 -28 -2 -29 -34 -24 -42 7 -76 -23 -76 -67 0 -47 30
-69 89 -68 l51 1 0 94 c0 76 -3 93 -15 93 -10 0 -15 -10 -15 -29z"/>
<path d="M10113 17304 c-2 -5 -29 -11 -61 -12 -31 -1 -79 -4 -107 -6 -27 -3
-56 -5 -63 -5 -14 -1 -10 -57 7 -89 14 -26 14 -109 1 -117 -6 -4 -10 6 -10 24
0 42 -17 81 -35 81 -17 0 -20 16 -5 25 6 3 10 20 10 36 0 35 -32 52 -79 43
-41 -8 -48 -32 -13 -44 59 -22 68 -30 27 -23 -22 3 -49 10 -60 16 -11 5 -17 6
-13 2 3 -4 -7 -21 -23 -37 -16 -17 -29 -38 -29 -47 0 -9 -7 -29 -15 -45 -8
-15 -15 -36 -15 -45 1 -14 3 -14 15 3 7 10 18 15 23 12 6 -3 12 -1 14 5 2 7
13 6 33 -5 17 -8 53 -21 80 -29 42 -12 51 -19 56 -43 9 -51 -43 -138 -102
-169 -52 -28 -107 37 -117 137 -4 38 -8 48 -21 46 -9 -2 -16 -13 -15 -25 0
-12 -6 -25 -14 -28 -10 -4 -13 0 -9 15 8 30 -10 24 -28 -10 -9 -16 -20 -30
-26 -30 -6 0 -6 8 2 21 11 21 11 21 -14 3 -16 -12 -27 -33 -31 -57 -4 -21 -10
-35 -16 -32 -12 8 -40 -35 -40 -62 0 -12 -9 -27 -19 -33 -13 -6 -18 -17 -15
-32 2 -13 2 -17 -2 -10 -9 19 -27 14 -20 -5 6 -15 4 -15 -14 2 -13 12 -20 31
-20 56 0 35 2 38 33 41 27 3 39 13 77 68 24 36 61 79 83 95 67 52 79 66 74 86
-3 10 -2 17 3 14 7 -4 23 36 17 42 -1 1 13 18 32 37 20 20 30 39 26 46 -4 7
-3 15 2 19 6 3 13 17 17 31 6 20 5 22 -4 10 -9 -11 -13 -12 -17 -2 -2 6 -22
12 -44 12 -30 0 -37 -3 -33 -15 4 -9 0 -15 -10 -15 -9 0 -16 7 -16 15 0 9 -6
12 -15 9 -8 -4 -23 -3 -32 2 -15 6 -13 8 12 14 l30 8 -32 1 c-27 1 -32 -3 -35
-26 -4 -32 -28 -44 -28 -14 0 21 -21 24 -47 8 -9 -6 -13 -2 -13 10 0 11 -3 14
-8 7 -4 -6 -17 -14 -29 -18 -13 -4 -23 -12 -23 -17 0 -6 -5 -7 -10 -4 -7 4 -3
14 10 25 12 10 17 21 12 24 -6 3 -12 -1 -16 -9 -4 -12 -9 -12 -33 0 -17 9 -29
11 -31 5 -2 -6 -10 -10 -18 -10 -9 0 -12 -5 -9 -10 4 -6 -7 -13 -24 -16 -29
-6 -44 -24 -20 -24 16 0 36 -24 31 -38 -2 -7 5 -16 17 -19 14 -4 21 -13 21
-30 0 -13 5 -33 10 -44 9 -15 7 -21 -5 -25 -18 -7 -20 -31 -3 -36 17 -6 1 -38
-19 -38 -10 0 -38 -14 -62 -30 -43 -29 -43 -30 -20 -39 23 -9 23 -10 2 -10
-30 -1 -40 19 -18 35 16 12 16 14 2 28 -9 9 -18 16 -21 16 -3 0 -6 -40 -6 -89
l0 -89 28 -4 c15 -3 34 -7 42 -10 8 -3 12 -3 8 -1 -15 8 -8 22 7 17 22 -9 18
-31 -5 -37 -11 -3 -20 -13 -20 -23 0 -16 1 -16 19 0 10 9 32 19 47 20 41 5 41
5 19 22 -20 15 -19 15 5 12 21 -2 25 -8 26 -39 1 -32 -1 -35 -23 -31 -13 2
-30 -1 -38 -8 -11 -9 -15 -9 -15 -1 0 7 -5 9 -10 6 -6 -3 -28 -7 -50 -7 l-40
0 0 -304 c0 -236 3 -304 13 -304 9 0 9 -2 0 -8 -6 -4 -11 -36 -12 -80 0 -46 3
-71 9 -67 6 4 8 10 5 15 -3 5 -1 11 5 15 5 3 10 0 10 -8 0 -9 11 -14 30 -15
35 -1 51 17 21 25 -24 6 -29 23 -7 23 20 0 31 19 18 32 -13 13 -5 162 10 191
9 17 53 23 75 9 6 -4 13 -25 15 -47 3 -30 10 -43 28 -52 l25 -13 -28 0 -29 0
4 -85 c2 -52 7 -83 13 -81 6 3 29 10 52 17 24 6 40 15 37 20 -3 5 2 9 11 9 10
0 13 -5 9 -12 -5 -8 -2 -9 10 -5 10 4 26 7 36 7 16 0 18 6 13 34 -4 26 4 53
35 117 32 67 57 102 127 173 l88 90 24 -28 c23 -27 23 -29 7 -47 -9 -10 -22
-16 -28 -12 -6 3 -8 3 -4 -2 4 -4 -13 -31 -37 -60 -25 -28 -42 -55 -38 -58 3
-4 2 -7 -4 -7 -6 0 -16 -34 -24 -75 -7 -41 -16 -75 -21 -75 -4 0 -5 14 -1 30
9 46 -13 36 -38 -17 -28 -58 -28 -58 -34 -51 -3 3 2 22 10 42 24 56 14 63 -14
11 -23 -44 -24 -46 -5 -59 23 -18 15 -28 -25 -30 -34 -2 -55 -16 -23 -16 26 0
40 -20 15 -21 -10 -1 -24 -1 -30 0 -20 3 -15 -17 6 -29 13 -7 17 -16 13 -32
-4 -18 -2 -20 14 -14 17 7 118 26 137 26 5 0 6 4 3 9 -3 5 3 11 14 14 11 3 23
12 26 21 7 19 -14 49 -28 40 -6 -4 -14 -1 -18 5 -4 7 -16 13 -28 14 -11 0 -18
5 -16 9 3 4 1 8 -5 8 -5 0 -12 -6 -14 -12 -3 -8 -6 -6 -6 5 -1 22 41 22 89 -1
27 -13 36 -24 38 -48 3 -31 5 -32 63 -38 87 -10 109 -20 109 -51 0 -15 4 -24
10 -20 11 7 14 -8 3 -19 -4 -4 -9 -18 -10 -31 -3 -21 1 -25 22 -25 17 0 25 5
25 17 0 9 3 13 7 10 7 -8 33 11 33 25 0 6 -7 7 -16 4 -8 -3 -12 -2 -9 4 9 14
-8 13 -23 -2 -17 -17 -10 55 8 77 14 16 13 17 -7 11 -12 -4 -24 -2 -28 5 -6 8
-10 8 -16 -2 -6 -11 -14 -9 -38 9 -17 12 -34 22 -40 22 -5 0 -11 7 -15 15 -3
8 -1 15 4 15 6 0 10 -4 10 -10 0 -5 4 -10 10 -10 19 0 -2 29 -28 39 -15 5 -21
10 -14 10 26 2 11 16 -20 18 -29 2 -30 1 -12 -12 18 -13 18 -14 1 -15 -10 0
-20 6 -23 14 -3 8 -14 12 -27 9 -18 -5 -20 -3 -10 7 6 7 34 15 61 18 62 6 247
-32 284 -59 20 -14 44 -19 92 -19 46 0 65 -4 69 -14 3 -8 14 -12 25 -10 14 4
19 16 21 51 l2 45 -32 -7 c-22 -5 -34 -3 -41 6 -7 11 -11 11 -15 2 -2 -7 -12
-13 -21 -13 -13 0 -13 2 3 14 12 8 34 11 62 8 l43 -5 0 47 0 46 -45 0 c-25 0
-45 4 -45 9 0 5 20 7 45 5 l45 -5 0 390 c0 254 -4 391 -10 391 -5 0 -10 -7
-10 -15 0 -8 -10 -19 -22 -26 -18 -9 -20 -9 -15 4 3 8 0 18 -8 21 -8 3 -12 0
-10 -7 3 -7 -7 -20 -20 -30 -24 -17 -25 -17 -25 0 0 10 14 34 30 52 25 27 37
32 60 29 32 -5 41 8 14 19 -24 9 -80 -22 -100 -56 -21 -35 -26 -37 -48 -15
-26 26 -19 104 10 104 8 0 14 5 14 10 0 19 81 11 111 -11 l29 -20 0 58 c0 47
-4 61 -20 71 -11 7 -20 19 -20 28 0 8 -4 13 -8 10 -4 -2 -14 -1 -22 5 -12 7
-10 9 8 9 18 0 22 6 22 30 0 28 -2 29 -32 25 -18 -3 -26 -2 -18 2 26 11 42 33
36 48 -6 17 -66 16 -73 -1z m-649 -779 c-3 -14 -2 -25 4 -25 6 0 8 -19 5 -47
-2 -27 1 -75 7 -108 22 -127 15 -235 -17 -235 -8 0 -12 4 -9 9 4 5 -3 7 -14 4
-15 -4 -20 0 -20 16 0 13 -6 21 -17 21 -15 0 -13 4 7 20 14 11 20 20 14 20
-15 0 -24 33 -14 51 5 8 4 50 0 94 -7 73 -6 84 15 125 13 25 26 53 29 63 8 27
17 20 10 -8z"/>
<path d="M1950 17281 c-8 -5 -30 -8 -48 -7 -21 1 -32 -2 -32 -11 0 -7 0 -16
-1 -20 0 -4 5 -9 12 -12 6 -2 9 1 6 6 -3 5 0 10 8 10 8 0 11 -5 8 -10 -4 -6 1
-8 11 -4 10 4 15 3 11 -3 -3 -6 -14 -10 -23 -10 -16 -1 -15 -1 1 -11 9 -5 21
-8 26 -4 5 3 13 0 17 -6 5 -8 3 -9 -5 -5 -8 6 -11 2 -9 -10 2 -13 -3 -19 -15
-18 -13 2 -16 -3 -11 -18 5 -17 3 -18 -14 -9 -11 6 -22 16 -24 23 -2 6 -12 12
-21 14 -14 2 -17 -3 -13 -19 3 -12 3 -16 0 -9 -3 6 -10 9 -16 6 -7 -4 -7 2 -3
17 11 35 11 48 0 48 -6 1 -10 -33 -11 -80 -1 -67 3 -86 21 -112 12 -19 29 -31
40 -30 10 1 29 -3 41 -8 13 -4 31 -6 39 -3 17 7 20 40 5 49 -15 9 -12 32 7 55
23 26 40 25 63 -2 l19 -23 -3 27 c-1 15 -9 35 -17 44 -11 13 -11 18 -1 21 17
6 15 28 -3 43 -9 7 -14 19 -11 25 2 7 -6 24 -17 38 -16 19 -26 24 -37 18z"/>
<path d="M7450 16320 l0 -180 545 0 545 0 0 180 0 180 -545 0 -545 0 0 -180z
m1080 0 l0 -170 -535 0 -535 0 0 170 0 170 535 0 535 0 0 -170z"/>
<path d="M5614 15641 c-2 -2 -4 -28 -4 -58 l0 -53 165 0 c158 0 165 1 165 20
0 18 -7 20 -77 21 -43 1 -104 0 -135 -1 l-58 -2 0 31 0 31 135 0 c74 0 135 3
135 8 0 7 -318 10 -326 3z"/>
<path d="M3900 9705 c0 -14 -22 -20 -62 -17 -15 2 -18 -7 -18 -48 0 -58 17
-68 22 -12 3 32 7 37 30 40 24 3 27 0 30 -35 l3 -38 63 -2 c48 -2 64 1 68 12
8 20 -13 45 -37 45 -11 0 -19 5 -19 11 0 7 12 10 30 7 19 -3 29 -1 27 6 -3 10
-18 12 -94 15 -13 1 -23 7 -23 16 0 8 -4 15 -10 15 -5 0 -10 -7 -10 -15z"/>
<path d="M110 4170 l0 -390 2315 0 2315 0 0 390 0 390 -2315 0 -2315 0 0 -390z
m320 294 c35 -8 53 -38 39 -66 -6 -11 -5 -24 3 -37 9 -15 9 -25 0 -45 -10 -23
-17 -26 -67 -26 l-55 0 0 83 c0 46 3 87 7 90 8 9 31 9 73 1z m1427 -16 c16
-13 17 -40 3 -54 -8 -8 -8 -19 0 -38 14 -39 12 -66 -5 -66 -8 0 -15 9 -15 19
0 37 -12 51 -41 51 -26 0 -29 -3 -29 -35 0 -24 -5 -35 -15 -35 -12 0 -15 16
-15 84 0 58 4 86 13 90 17 8 89 -3 104 -16z m129 12 c38 -15 53 -39 54 -86 0
-60 -26 -84 -95 -84 l-55 0 0 84 c0 58 4 86 13 89 21 9 54 7 83 -3z m2626
-345 l42 -85 -42 -85 -42 -85 -550 0 -550 0 0 170 0 170 550 0 550 0 42 -85z
m-4322 -165 c0 -5 -9 -10 -20 -10 -11 0 -20 -4 -20 -10 0 -12 8 -12 73 -1 34
6 52 4 66 -5 16 -12 21 -11 31 1 16 19 25 19 44 -1 23 -23 20 -34 -11 -35 -24
-2 -25 -2 -5 -6 25 -5 29 -18 7 -27 -20 -7 -42 2 -49 20 -3 8 -17 13 -33 13
l-28 -1 30 -7 c29 -7 29 -7 9 -19 -25 -13 -49 1 -57 33 -4 15 -5 13 -6 -7 -1
-36 -31 -39 -31 -4 0 19 -4 23 -20 19 -11 -3 -20 -14 -20 -24 0 -11 -7 -19
-15 -19 -11 0 -15 12 -15 50 l0 50 35 0 c19 0 35 -4 35 -10z"/>
<path d="M6726 4510 c-49 -25 -47 -23 -51 -57 l-3 -28 27 31 c26 31 84 53 95
36 3 -4 7 -20 10 -34 4 -24 2 -26 -71 -36 -51 -7 -79 -16 -90 -29 -14 -17 -14
-17 -8 2 4 11 7 24 8 29 3 16 -73 53 -120 60 -53 7 -78 -4 -80 -35 -2 -16 1
-19 10 -10 6 6 23 11 39 11 20 0 26 -4 22 -15 -4 -9 -1 -15 7 -15 8 0 10 -3 3
-10 -6 -6 -23 -6 -49 2 -22 6 -47 10 -55 9 -21 -4 -51 -32 -45 -42 3 -4 1 -10
-4 -14 -6 -3 -8 -11 -5 -19 3 -7 1 -24 -5 -38 -5 -15 -6 -30 0 -39 6 -10 9 -5
9 18 0 17 6 33 12 35 20 7 36 -16 31 -44 -4 -19 2 -30 22 -46 14 -11 31 -23
38 -26 8 -3 9 -7 1 -13 -16 -12 -24 -42 -14 -48 6 -4 10 -21 10 -40 0 -18 5
-35 11 -37 15 -5 4 -39 -22 -66 -18 -20 -18 -22 -2 -18 10 1 27 7 37 11 13 6
21 4 24 -3 2 -6 14 0 27 16 23 26 23 27 44 8 12 -11 21 -25 21 -32 0 -8 6 -11
15 -8 30 12 14 -5 -31 -31 -41 -24 -45 -30 -42 -56 5 -35 -7 -39 -16 -4 -8 32
-18 32 -79 -6 -35 -22 -52 -27 -57 -19 -6 9 -9 9 -15 0 -4 -7 1 -14 14 -17 12
-3 20 -11 18 -17 -10 -28 14 -46 62 -46 45 0 49 2 56 27 9 36 20 43 77 43 l48
0 -5 -35 c-6 -53 24 -46 66 15 19 27 38 50 43 50 5 0 3 -7 -4 -15 -10 -12 -10
-18 0 -30 10 -12 10 -15 -3 -15 -9 0 -21 -9 -27 -20 -8 -16 -8 -20 4 -20 8 0
18 5 21 10 8 13 82 13 90 0 3 -5 42 -9 86 -9 74 1 94 8 67 25 -7 5 -5 11 7 21
26 18 59 17 51 -2 -14 -38 2 -45 110 -45 l104 0 0 145 c0 123 -2 145 -15 145
-11 0 -14 7 -10 23 3 12 7 32 8 45 0 12 5 22 9 22 13 0 9 125 -4 138 -9 9 -9
12 0 12 7 0 12 16 12 42 0 42 0 42 -16 20 -15 -22 -17 -22 -34 -7 -18 16 -17
18 16 47 22 19 34 39 34 55 0 24 -1 25 -22 11 -13 -8 -32 -32 -44 -52 l-21
-37 -29 36 c-27 34 -35 37 -89 41 -85 5 -128 14 -145 28 -14 13 -74 36 -91 36
-5 0 1 -16 13 -35 28 -48 17 -54 -13 -7 -28 44 -50 49 -103 22z m27 -181 c-4
-21 -1 -34 8 -40 11 -7 9 -9 -6 -9 -19 -1 -19 -2 -3 -14 21 -16 13 -26 -20
-26 -22 0 -23 2 -11 17 12 14 12 16 0 12 -24 -8 -25 -30 -1 -36 12 -3 26 -17
31 -30 13 -35 11 -43 -11 -43 -11 0 -20 -4 -20 -9 0 -9 77 -41 98 -41 7 0 12
-5 12 -10 0 -6 19 10 43 35 37 39 49 45 83 45 41 0 132 -36 120 -47 -3 -4 -12
-1 -18 5 -7 7 -19 12 -27 12 -12 -1 -9 -7 9 -23 32 -29 90 -102 90 -114 0 -14
61 -83 69 -79 4 3 8 -4 8 -15 1 -10 -2 -19 -6 -19 -5 0 -22 -3 -39 -6 -25 -5
-31 -3 -37 17 -4 13 -22 44 -40 69 -17 25 -44 67 -59 93 -15 27 -30 46 -33 43
-3 -3 -1 -11 5 -19 6 -7 25 -51 42 -97 17 -46 36 -90 42 -97 8 -10 5 -13 -15
-13 -15 0 -31 -9 -40 -22 -8 -13 -29 -31 -46 -41 -30 -18 -31 -18 -31 2 0 14
9 23 26 27 26 7 30 34 5 42 -9 3 -11 0 -7 -9 4 -8 1 -5 -8 6 -8 11 -21 27 -28
34 -7 8 -16 24 -20 35 -6 20 -6 20 -7 -1 -1 -27 -21 -41 -22 -16 -1 10 -6 1
-11 -19 -9 -35 -11 -36 -28 -20 -27 26 -40 57 -40 95 l0 35 -42 -13 c-24 -6
-49 -10 -56 -7 -11 3 -12 0 -2 -18 6 -12 9 -24 6 -28 -3 -3 -6 0 -6 6 0 7 -13
12 -28 12 -16 0 -37 7 -48 15 -18 14 -18 14 11 16 l30 2 -33 6 c-33 6 -41 27
-9 25 28 -1 20 14 -10 19 -27 4 -27 4 -5 12 15 5 22 16 23 34 1 20 4 16 15
-19 l14 -45 -5 50 c-3 39 -2 44 5 22 5 -16 14 -35 21 -43 6 -8 9 -17 6 -20 -8
-8 18 -34 32 -34 16 0 14 11 -6 33 -11 12 -12 17 -4 12 23 -13 4 46 -24 75
-33 35 -47 78 -40 123 6 35 9 38 33 32 22 -4 31 0 47 25 11 16 21 30 22 30 1
0 0 -14 -4 -31z"/>
<path d="M5180 4245 l0 -54 -25 24 c-67 68 -179 -12 -135 -95 16 -29 76 -42
116 -25 19 8 34 19 34 24 0 15 -14 14 -48 -6 -28 -16 -31 -16 -56 1 -42 27
-27 41 45 41 l64 0 3 -32 c2 -21 9 -33 18 -33 8 0 14 5 14 11 0 8 4 8 13 1 27
-22 81 -18 107 8 30 30 27 83 -6 109 -28 22 -78 28 -89 11 -13 -22 -25 -8 -25
30 0 29 -4 40 -15 40 -11 0 -15 -13 -15 -55z"/>
</g>
</svg>
