<?xml version="1.0" encoding="utf-8"?>
<!-- Svg Vector Icons : http://www.onlinewebfonts.com/icon -->
<!DOCTYPE svg PUBLIC "-//W3C//DTD SVG 1.1//EN" "http://www.w3.org/Graphics/SVG/1.1/DTD/svg11.dtd">
<svg version="1.1" xmlns="http://www.w3.org/2000/svg" xmlns:xlink="http://www.w3.org/1999/xlink" x="0px" y="0px" viewBox="0 0 1000 1000" enable-background="new 0 0 1000 1000" xml:space="preserve">
<metadata> Svg Vector Icons : http://www.onlinewebfonts.com/icon </metadata>
<g><g transform="translate(0.000000,511.000000) scale(0.100000,-0.100000)"><path d="M6190.3,4931.5l-529.9-52.5l209.9-238.7c112.8-131.2,207.2-246.6,207.2-254.5c0-10.5-73.4-73.5-162.7-139l-162.7-120.7l-118,136.4c-62.9,76.1-188.9,207.2-275.5,288.6c-154.8,146.9-157.4,152.2-107.5,204.6c26.2,28.9,42,60.3,31.5,68.2c-13.1,15.7-1466.5-112.8-1537.3-136.4c-23.6-7.9,28.9-81.3,160-215.1c265-275.5,393.5-453.9,516.8-716.2c118.1-257.1,160-430.2,160-674.2c-2.6-556.2-320.1-1114.9-1025.8-1802.3c-341-333.2-553.5-514.2-1526.8-1306.5C1386.8-551.4,1019.6-882,770.3-1160.1C33.1-1989-90.2-2658,371.6-3350.6C626-3731,1234.7-4229.5,1919.4-4617.7l262.3-146.9l1306.5,28.9c716.2,18.4,1303.8,36.7,1301.2,44.6c0,7.9-97.1,99.7-212.5,199.4c-115.4,102.3-241.3,223-278.1,272.8l-68.2,86.6l141.7,128.5c78.7,70.8,157.4,128.6,173.1,128.6c18.4,0,47.2-26.2,70.8-60.3c21-34.1,144.3-154.8,275.5-267.6l236.1-207.3l-104.9-133.8l-104.9-131.2l139-7.9c139-7.9,4832.3,99.7,4842.8,110.2c5.3,2.6-97.1,62.9-223,133.8C8698.3-3898.9,8005.7-3306,7664.6-2723.6c-209.9,356.8-304.3,818.5-251.8,1217.2c60.3,443.4,152.1,718.8,553.5,1618.7c440.7,989,577.1,1469.1,577.1,2020c0,868.4-393.5,1655.4-1264.5,2526.3C6888.1,5046.9,7019.3,5015.5,6190.3,4931.5z M6405.4,3832.3c91.8-202,170.5-495.8,170.5-629.6c0-91.8-5.3-99.7-70.8-99.7c-42,0-131.2-7.9-204.6-15.7l-131.2-15.7l-42,223c-23.6,120.7-70.8,283.3-107.6,362l-63,141.7l170.5,97.1c94.5,52.5,181,97.1,188.9,99.7C6326.7,3994.9,6366.1,3921.5,6405.4,3832.3z M6471,2667.5c57.7-7.9,104.9-23.6,104.9-36.7c0-10.5-28.8-131.2-63-265c-70.8-272.8-181-561.4-217.8-561.4c-10.5,0-99.7,34.1-199.4,78.7c-133.8,60.3-173.2,86.6-157.4,118.1c28.8,65.6,188.9,558.8,204.6,637.5C6158.8,2720,6127.3,2717.3,6471,2667.5z M5941.1,1502.7c110.2-60.3,160-102.3,149.6-128.5c-26.2-65.6-438.1-684.7-456.5-684.7c-10.5,0-91.8,52.5-181,118l-160.1,118.1l162.7,241.4c91.8,133.8,191.5,288.6,223,343.7c31.5,55.1,68.2,97.1,78.7,91.8C5767.9,1597.1,5849.2,1552.5,5941.1,1502.7z M5227.5,461.2c104.9-76.1,157.4-131.2,144.3-149.5c-13.1-15.7-123.3-167.9-249.2-338.4c-149.5-202-238.7-301.7-259.7-288.6c-154.8,91.8-304.3,225.6-288.6,254.5c34.1,60.3,467,645.3,477.4,645.3C5057,584.5,5135.7,529.4,5227.5,461.2z M4508.7-575l152.2-99.7L4548-853.1c-63-97.1-157.4-254.5-212.5-351.5l-97.1-178.4l-183.6,91.8c-99.7,52.5-181,99.7-181,110.2c0,26.2,175.8,343.7,309.6,550.9c68.2,110.2,131.2,183.6,146.9,173.1C4346-467.5,4427.4-519.9,4508.7-575z M3889.6-1661.1c99.7-36.7,183.6-70.8,188.9-76.1c2.6-2.6-15.7-91.8-44.6-194.1c-28.9-102.3-60.3-270.2-70.8-369.9l-18.4-183.6h-209.9h-209.9l15.7,217.7c15.7,217.8,123.3,674.2,157.4,674.2C3705.9-1592.9,3792.5-1624.4,3889.6-1661.1z M4026-2962.4c23.6-91.8,97.1-251.8,262.3-577.1c7.9-18.4-291.2-230.8-330.5-230.8c-57.7,0-372.5,671.6-372.5,797.5c0,26.2,188.9,81.3,396.1,118C3991.9-2852.2,4010.2-2902,4026-2962.4z"/></g></g>
</svg>